<svg xmlns="http://www.w3.org/2000/svg" width="600" height="240" viewBox="0 0 600 240" role="img" aria-labelledby="title description">
  <title id="title">Fgentic</title>
  <desc id="description">Fgentic project wordmark</desc>
  <g fill="#0F172A" transform="translate(52 165) scale(0.1464 -0.1464)">
    <path d="M71.75 0V703H208V0ZM171.5 288.25V408.5H526V288.25ZM171.5 582.75V703H542.5V582.75Z" transform="translate(0)"/>
    <path d="M260.25 -214Q182.5 -214 123.75 -186.5Q65 -159 30 -109L113 -26.25Q140.5 -59.5 175.25 -76.625Q210 -93.75 259 -93.75Q319.75 -93.75 355.125 -62.875Q390.5 -32 390.5 22.5V143.5L412.75 249.5L391.75 356V483H522V24.5Q522 -47.5 488.5 -100.875Q455 -154.25 396 -184.125Q337 -214 260.25 -214ZM254.25 12.5Q189 12.5 137.125 44.125Q85.25 75.75 55.625 130.75Q26 185.75 26 253.5Q26 321.5 55.625 375.625Q85.25 429.75 137.125 461.375Q189 493 254.25 493Q307.75 493 349.125 472.125Q390.5 451.25 414.625 414.375Q438.75 377.5 440.5 328.5V177Q438.75 128.75 414.25 91.5Q389.75 54.25 348.375 33.375Q307 12.5 254.25 12.5ZM279.75 132.25Q315.75 132.25 342.5 147.75Q369.25 163.25 383.875 190.375Q398.5 217.5 398.5 253Q398.5 288.5 383.875 315.625Q369.25 342.75 342.625 358.25Q316 373.75 280 373.75Q244.25 373.75 217.125 358.25Q190 342.75 175 315.5Q160 288.25 160 253Q160 218.75 175 191.125Q190 163.5 217 147.875Q244 132.25 279.75 132.25Z" transform="translate(578)"/>
    <path d="M288.75 -10.5Q213.25 -10.5 153.875 22Q94.5 54.5 60.25 111.875Q26 169.25 26 241.5Q26 313.5 59.625 370.375Q93.25 427.25 151.125 460.375Q209 493.5 280.25 493.5Q349.75 493.5 403.125 462.375Q456.5 431.25 487 376.75Q517.5 322.25 517.5 252.5Q517.5 239.75 516 226.25Q514.5 212.75 511 196L104.5 195.25V292.75L450 293.5L396.5 253.25Q395 296.25 381.375 325.125Q367.75 354 342.375 369.25Q317 384.5 279.75 384.5Q240.75 384.5 212 367.25Q183.25 350 167.625 318.625Q152 287.25 152 243.5Q152 199.5 168.625 167.125Q185.25 134.75 216 117.375Q246.75 100 288 100Q324.5 100 354.75 112.625Q385 125.25 407 150.25L484 72.75Q448.5 31.5 398 10.5Q347.5 -10.5 288.75 -10.5Z" transform="translate(1157)"/>
    <path d="M382.5 0V276.75Q382.5 320 355.5 347.125Q328.5 374.25 286.4337 374.25Q257.8087 374.25 235.7793 362Q213.75 349.75 201.375 327.625Q189 305.5 189 276.75L137.75 303.25Q137.75 359.5 162.375 402.125Q187 444.75 230.422 468.875Q273.8439 493 328.797 493Q382.25 493 424.125 466.5Q466 440 490 397.25Q514 354.5 514 306V0ZM57.5 0V483H189V0Z" transform="translate(1698)"/>
    <path d="M128.5 0V683.5H260V0ZM16 368V483H372.5V368Z" transform="translate(2260)"/>
    <path d="M58 0V483H189.5V0ZM123.75 560.5Q92 560.5 71 582.125Q50 603.75 50 635.5Q50 667.25 71 688.875Q92 710.5 123.75 710.5Q156.5 710.5 177 688.875Q197.5 667.25 197.5 635.5Q197.5 603.75 177 582.125Q156.5 560.5 123.75 560.5Z" transform="translate(2649)"/>
    <path d="M285.5 -10.5Q212.25 -10.5 153.125 22.5Q94 55.5 60 112.875Q26 170.25 26 241.25Q26 313.25 60.125 370.25Q94.25 427.25 153.5 460.375Q212.75 493.5 286.25 493.5Q342.75 493.5 390.75 472.875Q438.75 452.25 474.25 413L389.5 327.5Q370.5 349.25 344.375 360.125Q318.25 371 286.25 371Q249.5 371 221 354.5Q192.5 338 176.375 309.25Q160.25 280.5 160.25 241.75Q160.25 203.75 176.375 174.5Q192.5 145.25 221.125 128.625Q249.75 112 286.25 112Q319 112 345.375 123.375Q371.75 134.75 390.75 157L475.5 71.5Q439.25 31.5 391.125 10.5Q343 -10.5 285.5 -10.5Z" transform="translate(2897)"/>
  </g>
  <path d="M52 218H548" stroke="#646CFF" stroke-width="10" stroke-linecap="round"/>
</svg>
